<svg width="32" height="32" xmlns="http://www.w3.org/2000/svg">

 <g>
  <title>background</title>
  <rect fill="none" id="canvas_background" height="402" width="582" y="-1" x="-1"/>
 </g>
 <g>
  <title>Layer 1</title>
  <path fill="#028300" id="svg_1" d="m23,12.1l0,-2.1c0,-3.9 -3.1,-7 -7,-7s-7,3.1 -7,7l0,2.1c-2.8,0.5 -5,2.9 -5,5.9c0,3.3 2.7,6 6,6l5,0l0,6c0,0.6 0.4,1 1,1s1,-0.4 1,-1l0,-6l5,0c3.3,0 6,-2.7 6,-6c0,-3 -2.2,-5.4 -5,-5.9zm-0.2,5.5c-1.3,2 -3.5,3.2 -5.9,3.4c0,0.1 0,0.2 0,0.3l0,1.7c0,0.6 -0.4,1 -1,1s-1,-0.4 -1,-1l0,-1.7c0,-1.1 -0.5,-2.1 -1.5,-2.7c-0.4,-0.4 -1,-0.6 -1.7,-0.6l-1.7,0c-0.6,0 -1,-0.4 -1,-1s0.4,-1 1,-1l1.7,0c1,0 2.1,0.3 2.9,0.9c0.1,0.1 0.2,0.2 0.4,0.3l0,-8.2c0,-0.6 0.4,-1 1,-1s1,0.4 1,1l0,10c1.7,-0.2 3.2,-1.1 4.2,-2.5c0.3,-0.5 0.9,-0.6 1.4,-0.3c0.4,0.3 0.5,0.9 0.2,1.4z"/>
 </g>
</svg>