<svg width="32" height="32" xmlns="http://www.w3.org/2000/svg">

 <g>
  <title>background</title>
  <rect fill="none" id="canvas_background" height="402" width="582" y="-1" x="-1"/>
 </g>
 <g>
  <title>Layer 1</title>
  <path fill="#028300" id="svg_2" d="m27.4,23.8c0.8,-5.7 0.8,-9.9 0,-15.6c-0.1,-0.8 0,-1.7 0.4,-2.8c0.1,-0.3 0.2,-0.6 0.2,-0.9c0,-1.4 -1.1,-2.5 -2.5,-2.5c-0.3,0 -0.6,0.1 -0.9,0.2c-1.1,0.4 -1.9,0.5 -2.6,0.4c-4.3,-0.7 -7.7,-0.7 -12.1,0c-0.7,0.1 -1.5,0 -2.6,-0.4c-0.2,-0.1 -0.5,-0.2 -0.8,-0.2c-1.4,0 -2.5,1.1 -2.5,2.5c0,0.3 0.1,0.6 0.2,0.9c0.4,1.1 0.5,2 0.4,2.8c-0.8,5.7 -0.8,9.9 0,15.6c0.1,0.8 0,1.7 -0.4,2.8c-0.1,0.3 -0.2,0.6 -0.2,0.9c0,1.4 1.1,2.5 2.5,2.5c0.3,0 0.6,-0.1 0.9,-0.2c1.1,-0.4 1.9,-0.5 2.6,-0.4c4.3,0.7 7.7,0.7 12.1,0c0.7,-0.1 1.5,0 2.6,0.4c0.3,0.1 0.6,0.2 0.9,0.2c1.4,0 2.5,-1.1 2.5,-2.5c0,-0.3 -0.1,-0.6 -0.2,-0.9c-0.5,-1.1 -0.6,-2 -0.5,-2.8zm-5.4,-6.3c0.3,0 0.5,0.2 0.5,0.5c0,3.6 -2.9,6.5 -6.5,6.5s-6.5,-2.9 -6.5,-6.5c0,-0.3 0.2,-0.5 0.5,-0.5c0.5,0 1,0.1 1.5,0.2c-1.2,-1.2 -2,-2.8 -2,-4.7c0,-0.3 0.2,-0.5 0.5,-0.5c1.5,0 2.9,0.5 4,1.4c-0.7,-2.2 -0.1,-4.8 1.6,-6.5c0.2,-0.2 0.5,-0.2 0.7,0c1.8,1.8 2.3,4.3 1.6,6.5c1.1,-0.9 2.5,-1.4 4,-1.4c0.3,0 0.5,0.2 0.5,0.5c0,1.8 -0.8,3.5 -2,4.7c0.6,-0.1 1.1,-0.2 1.6,-0.2z"/>
  <path fill="#004e66" id="svg_3" d="m14.5,19.3c0.6,0.6 1.2,1.4 1.5,2.2c0.3,-0.8 0.9,-1.6 1.5,-2.2c-0.5,0.1 -1,0.2 -1.5,0.2s-1,-0.1 -1.5,-0.2z"/>
 </g>
</svg>