<svg width="32" height="32" xmlns="http://www.w3.org/2000/svg">

 <g>
  <title>background</title>
  <rect fill="none" id="canvas_background" height="402" width="582" y="-1" x="-1"/>
 </g>
 <g>
  <title>Layer 1</title>
  <path fill="#028300" id="svg_1" d="m25.9,11.5c-0.3,-0.5 -0.9,-0.7 -1.4,-0.4c-1,0.5 -1.9,1.2 -2.7,1.9c-0.6,-4.3 -2.1,-12 -5.8,-12c-3.7,0 -5.2,7.7 -5.8,12c-0.8,-0.7 -1.8,-1.3 -2.7,-1.9c-0.5,-0.2 -1.1,-0.1 -1.4,0.4c-0.2,0.5 -0.1,1.1 0.4,1.4c0.9,0.5 1.7,1.1 2.5,1.7l0,9.4c0,3.9 3.1,7 7,7s7,-3.1 7,-7l0,-9.4c0.8,-0.6 1.6,-1.2 2.5,-1.7c0.01563,-0.00937 0.03086,-0.01904 0.04571,-0.02899c0.01484,-0.00995 0.0293,-0.02018 0.04338,-0.03068c0.01407,-0.0105 0.02776,-0.02126 0.04107,-0.03229c0.01331,-0.01102 0.02624,-0.0223 0.03879,-0.03382c0.01254,-0.01152 0.02471,-0.02329 0.03651,-0.03529c0.01179,-0.012 0.02321,-0.02423 0.03426,-0.03668c0.01105,-0.01246 0.02172,-0.02513 0.03203,-0.038c0.01031,-0.01288 0.02024,-0.02597 0.02981,-0.03925c0.00957,-0.01328 0.01878,-0.02676 0.02762,-0.04042c0.00884,-0.01366 0.01732,-0.0275 0.02543,-0.04151c0.00812,-0.01402 0.01588,-0.0282 0.02328,-0.04255c0.0074,-0.01434 0.01444,-0.02884 0.02113,-0.04349c0.00669,-0.01465 0.01303,-0.02944 0.01901,-0.04437c0.00599,-0.01493 0.01162,-0.02999 0.01691,-0.04518c0.00528,-0.01519 0.01022,-0.03049 0.01481,-0.04591c0.0046,-0.01542 0.00884,-0.03094 0.01275,-0.04657c0.00391,-0.01562 0.00747,-0.03135 0.0107,-0.04716c0.00322,-0.0158 0.00611,-0.0317 0.00866,-0.04766c0.00255,-0.01597 0.00477,-0.03201 0.00665,-0.04811c0.00188,-0.0161 0.00343,-0.03227 0.00465,-0.04848c0.00122,-0.01621 0.00212,-0.03247 0.00268,-0.04876c0.00057,-0.0163 0.0008,-0.03263 0.00072,-0.04899c-0.00009,-0.01636 -0.0005,-0.03274 -0.00123,-0.04913c-0.00073,-0.0164 -0.00178,-0.0328 -0.00314,-0.04921c-0.00137,-0.01641 -0.00305,-0.03281 -0.00505,-0.04921c-0.002,-0.01639 -0.00432,-0.03277 -0.00694,-0.04913c-0.00262,-0.01636 -0.00556,-0.03269 -0.0088,-0.04899c-0.00325,-0.01629 -0.0068,-0.03255 -0.01066,-0.04876c-0.00386,-0.01621 -0.00802,-0.03238 -0.01248,-0.04848c-0.00447,-0.0161 -0.00923,-0.03214 -0.0143,-0.04811c-0.00507,-0.01596 -0.01043,-0.03186 -0.01609,-0.04766c-0.00566,-0.01581 -0.01162,-0.03153 -0.01787,-0.04716zm-9.9,-8.5c1.1,0 3.2,3.7 4,11.7c-1.8,1.9 -3.1,4.2 -4,6.6c-0.8,-2.5 -2.2,-4.7 -4,-6.6c0.8,-8 2.9,-11.7 4,-11.7z"/>
 </g>
</svg>